<svg width="800" height="800" viewBox="0 0 800 800" xmlns="http://www.w3.org/2000/svg">
  <rect width="800" height="800" fill="#8D9674"/>
  <filter id="blur">
    <feGaussianBlur in="SourceGraphic" stdDeviation="15" result="blur" />
    <feColorMatrix in="blur" mode="matrix" values="1 0 0 0 0  0 1 0 0 0  0 0 1 0 0  0 0 0 18 -7" result="goo" />
    <feComposite in="SourceGraphic" in2="goo" operator="atop"/>
  </filter>
  <g filter="url(#blur)">
    <circle cx="93.57068919308453" cy="8.21797046619448" r="43.283053257190005" fill="#304D27" />
    <circle cx="95.41889333375468" cy="39.03260917498296" r="40.10759100035113" fill="#304D27" />
    <circle cx="82.80543806788609" cy="35.116888906801485" r="34.272677841259636" fill="#304D27" />
    <circle cx="108.85421950083054" cy="20.937369144623005" r="22.52898589015758" fill="#304D27" />
    <circle cx="33.73413194754793" cy="119.73325241482522" r="102.24544449540977" fill="#304D27" />
    <circle cx="-6.432698983388185" cy="123.71298009783789" r="59.84891277430091" fill="#304D27" />
    <circle cx="-0.9461927743232437" cy="113.20470230424095" r="128.48302712882824" fill="#304D27" />
    <circle cx="-3.2375549619984767" cy="192.07688667473815" r="89.85028239564622" fill="#304D27" />
    <circle cx="360.574109150458" cy="573.3580601232961" r="88.04634443087237" fill="#304D27" />
    <circle cx="376.9289510728416" cy="555.1733002060613" r="92.69855847586521" fill="#304D27" />
    <circle cx="341.7351270120903" cy="564.056816344238" r="73.84270947594669" fill="#304D27" />
    <circle cx="406.9138907992955" cy="585.6058978362419" r="113.15822787832609" fill="#304D27" />
    <circle cx="312.8926556191085" cy="248.33504665930155" r="101.08403117158423" fill="#304D27" />
    <circle cx="312.1771849441478" cy="304.93770036253323" r="63.55798177061282" fill="#304D27" />
    <circle cx="293.42650892360433" cy="242.78777568103882" r="115.92020102992957" fill="#304D27" />
    <circle cx="265.80312163659" cy="294.03773547515823" r="106.06534685892926" fill="#304D27" />
    <circle cx="18.295625534776505" cy="1.5159394104677482" r="96.20932305119318" fill="#304D27" />
    <circle cx="89.97825725347134" cy="68.12327845130228" r="78.12478066787996" fill="#304D27" />
    <circle cx="10.211219980197832" cy="-22.498825452273998" r="77.33378224772231" fill="#304D27" />
    <circle cx="41.64344062993801" cy="-24.473152924870988" r="104.95583033042188" fill="#304D27" />
    <circle cx="743.7628141194616" cy="132.82770789038477" r="114.66502347695852" fill="#304D27" />
    <circle cx="800.6505708588849" cy="88.3508339412135" r="84.86271639105563" fill="#304D27" />
    <circle cx="733.4632911550418" cy="171.61147935974864" r="133.87897461440792" fill="#304D27" />
    <circle cx="749.4495347038458" cy="109.5485610864526" r="61.532598387331646" fill="#304D27" />
    <circle cx="695.5735307094557" cy="93.32830222206319" r="82.30511919248627" fill="#304D27" />
    <circle cx="695.8739084606567" cy="145.86582444352007" r="59.44398545028574" fill="#304D27" />
    <circle cx="709.0801025215407" cy="124.90897038068405" r="89.47598457648884" fill="#304D27" />
    <circle cx="711.374627573779" cy="142.25350070941823" r="91.65181099022975" fill="#304D27" />
    <circle cx="651.1531155135641" cy="35.713039460250954" r="49.83623282202657" fill="#304D27" />
    <circle cx="613.9204406177419" cy="73.06335715835289" r="63.168909097999226" fill="#304D27" />
    <circle cx="687.0759559555488" cy="30.211742604923355" r="42.500618686643634" fill="#304D27" />
    <circle cx="650.9755590465945" cy="43.69699329916939" r="46.615113220124165" fill="#304D27" />
    <circle cx="661.5264682630293" cy="522.240583535293" r="52.74567948257164" fill="#304D27" />
    <circle cx="670.275509895803" cy="491.2678438846166" r="29.55066904738556" fill="#304D27" />
    <circle cx="655.9851722794389" cy="527.5458835224164" r="65.34646643117976" fill="#304D27" />
    <circle cx="684.6841867933027" cy="502.69013745838055" r="50.07738934272142" fill="#304D27" />
    <circle cx="29.418423301845564" cy="585.5189900802561" r="91.27744757139631" fill="#304D27" />
    <circle cx="13.859238434853166" cy="613.9622969344111" r="90.03667978178527" fill="#304D27" />
    <circle cx="-22.46782367907059" cy="605.0669781430537" r="102.67644317418804" fill="#304D27" />
    <circle cx="19.06770481541666" cy="588.3075846269105" r="72.2321254849582" fill="#304D27" />
    <circle cx="416.15110426335843" cy="648.8833362614085" r="83.9537217528198" fill="#304D27" />
    <circle cx="429.1220388686903" cy="711.3552884664477" r="95.6046902459338" fill="#304D27" />
    <circle cx="354.6071009236294" cy="588.0449554904372" r="99.30525741004307" fill="#304D27" />
    <circle cx="365.8234117806745" cy="673.9430936449317" r="54.38271643564538" fill="#304D27" />
    <circle cx="684.296283864812" cy="729.8102139805044" r="115.58033714666651" fill="#304D27" />
    <circle cx="692.8516690548839" cy="765.898159662639" r="72.35760429994086" fill="#304D27" />
    <circle cx="638.3606176013016" cy="777.437844866359" r="112.71878626904625" fill="#304D27" />
    <circle cx="661.7798197320643" cy="752.0134516640474" r="111.35458555275278" fill="#304D27" />
    <circle cx="381.1984426031709" cy="356.35223171077956" r="88.75362962271879" fill="#304D27" />
    <circle cx="354.4534697539036" cy="336.96440529218944" r="46.27730887314981" fill="#304D27" />
    <circle cx="446.3540671531084" cy="421.8094633413328" r="90.31097275147611" fill="#304D27" />
    <circle cx="413.97339028101936" cy="315.70966843510627" r="100.62410480991822" fill="#304D27" />
    <circle cx="86.3175353354567" cy="364.44596760404073" r="61.15564512828074" fill="#304D27" />
    <circle cx="75.63959095564994" cy="330.30819962891013" r="53.30322989964499" fill="#304D27" />
    <circle cx="126.09470112171897" cy="389.72644286980324" r="78.10037970841627" fill="#304D27" />
    <circle cx="96.69691082545546" cy="362.85884785363004" r="64.2255896326201" fill="#304D27" />
    <circle cx="656.8195242483963" cy="388.8061456246117" r="118.7370236848537" fill="#304D27" />
    <circle cx="571.350261393723" cy="367.78981082056475" r="141.4534753836374" fill="#304D27" />
    <circle cx="671.0819274036666" cy="358.0104548737564" r="109.02970741744656" fill="#304D27" />
    <circle cx="669.4709005842782" cy="470.40012508931767" r="78.8751359799136" fill="#304D27" />
    <circle cx="170.51286372198095" cy="15.952875873507999" r="71.3719972935158" fill="#4A3525" />
    <circle cx="165.2735496483238" cy="36.686296130224456" r="62.62138137252581" fill="#4A3525" />
    <circle cx="123.52801691986943" cy="-10.445367639749684" r="81.15526594510715" fill="#4A3525" />
    <circle cx="176.11168839966072" cy="-33.22660896222259" r="70.79751718140157" fill="#4A3525" />
    <circle cx="422.7555178822387" cy="612.0079163404658" r="60.07333772775836" fill="#4A3525" />
    <circle cx="462.2876594066087" cy="594.1969269427083" r="37.6761464408828" fill="#4A3525" />
    <circle cx="402.3878586351239" cy="643.1024636772106" r="53.62053036680744" fill="#4A3525" />
    <circle cx="405.0667802667185" cy="625.6502956799075" r="43.804151262826934" fill="#4A3525" />
    <circle cx="35.409310738570724" cy="687.4549450655055" r="104.63696593389979" fill="#4A3525" />
    <circle cx="62.63937430172639" cy="719.1735954986501" r="132.37075655490665" fill="#4A3525" />
    <circle cx="96.50401302883996" cy="641.8278928225807" r="123.24207638905605" fill="#4A3525" />
    <circle cx="65.3307574752598" cy="629.6566283345379" r="133.05075759275638" fill="#4A3525" />
    <circle cx="782.2312293497725" cy="96.43489508464302" r="116.16455164532562" fill="#4A3525" />
    <circle cx="799.7352918561722" cy="182.00315381067665" r="143.6945139187384" fill="#4A3525" />
    <circle cx="744.5129812720768" cy="92.48960615816732" r="61.449277621042924" fill="#4A3525" />
    <circle cx="729.1409860274819" cy="161.82115636269208" r="146.20164256217592" fill="#4A3525" />
    <circle cx="611.0203107818508" cy="277.4454275670896" r="63.68987860164391" fill="#4A3525" />
    <circle cx="599.0231587647104" cy="272.86633956208146" r="65.95515778143502" fill="#4A3525" />
    <circle cx="568.1782124663117" cy="259.9985921659853" r="34.489528693668234" fill="#4A3525" />
    <circle cx="637.2527350521998" cy="271.63405321314815" r="36.9688161153315" fill="#4A3525" />
    <circle cx="776.6608162069115" cy="288.498776812379" r="49.86143810091733" fill="#4A3525" />
    <circle cx="785.2914708613899" cy="295.1060536563142" r="50.043359315564715" fill="#4A3525" />
    <circle cx="801.6400041524814" cy="255.93393561171587" r="49.62423829035877" fill="#4A3525" />
    <circle cx="750.4436308904756" cy="261.78261162076876" r="59.61971445135064" fill="#4A3525" />
    <circle cx="577.8242093406715" cy="24.41393161211831" r="108.43391797824205" fill="#4A3525" />
    <circle cx="503.53640041095383" cy="67.22353508098357" r="60.38675697615696" fill="#4A3525" />
    <circle cx="505.7409459535923" cy="95.5672520082243" r="84.2498989635497" fill="#4A3525" />
    <circle cx="597.2596998775674" cy="57.60978416815029" r="94.41687795898032" fill="#4A3525" />
    <circle cx="178.15598405438163" cy="636.2048299663833" r="118.70951687127726" fill="#4A3525" />
    <circle cx="206.83122120238724" cy="568.0160750471093" r="136.27836690459375" fill="#4A3525" />
    <circle cx="137.17974950772253" cy="588.5310386221523" r="72.02118579589678" fill="#4A3525" />
    <circle cx="257.31902614703915" cy="617.155343989585" r="116.35552607375178" fill="#4A3525" />
    <circle cx="354.7108895301951" cy="589.4858565150105" r="86.14528054503633" fill="#4A3525" />
    <circle cx="392.16553856325913" cy="571.7784318725494" r="43.576983633458696" fill="#4A3525" />
    <circle cx="386.5527557139573" cy="613.5922952189682" r="65.76048174054826" fill="#4A3525" />
    <circle cx="311.54948364065285" cy="574.552904475534" r="87.73214422822443" fill="#4A3525" />
    <circle cx="316.0136498850641" cy="776.9618086825031" r="97.0765225254901" fill="#4A3525" />
    <circle cx="261.6918659381482" cy="752.7539219086104" r="93.29562575905418" fill="#4A3525" />
    <circle cx="312.1783072159513" cy="730.2872996982952" r="115.5174802153254" fill="#4A3525" />
    <circle cx="367.606310570881" cy="718.0737874101144" r="117.20009754612049" fill="#4A3525" />
    <circle cx="461.89774192634366" cy="702.3552677293819" r="60.23612215402858" fill="#4A3525" />
    <circle cx="477.41447765694664" cy="684.7673797898469" r="55.625876014281324" fill="#4A3525" />
    <circle cx="430.5128708598689" cy="719.9731541178114" r="32.856723793034135" fill="#4A3525" />
    <circle cx="479.8951731263898" cy="688.8469704396807" r="30.58315772276162" fill="#4A3525" />
    <circle cx="563.4772376415743" cy="230.19254104040846" r="46.148909864132506" fill="#4A3525" />
    <circle cx="536.5767603767689" cy="227.26259821187955" r="42.12361232779868" fill="#4A3525" />
    <circle cx="537.3545974527229" cy="224.34730362254834" r="29.471820579007883" fill="#4A3525" />
    <circle cx="536.025448633216" cy="211.4072034562863" r="42.342363508340654" fill="#4A3525" />
    <circle cx="738.4165489337238" cy="212.3467192362341" r="57.6523932728588" fill="#4A3525" />
    <circle cx="746.6212048382921" cy="229.70442639275925" r="69.88136257197206" fill="#4A3525" />
    <circle cx="731.683555356466" cy="229.98024043100293" r="70.39972070042252" fill="#4A3525" />
    <circle cx="724.4579390620586" cy="249.54930560332124" r="51.28123886014074" fill="#4A3525" />
    <circle cx="361.3123923790087" cy="558.8890050456662" r="73.76633336004954" fill="#4A3525" />
    <circle cx="382.22218299401584" cy="552.659377121482" r="87.52371135788871" fill="#4A3525" />
    <circle cx="312.6352806741307" cy="589.1248110237839" r="91.4011899292094" fill="#4A3525" />
    <circle cx="377.6231671786262" cy="592.3917876366941" r="66.76026307020442" fill="#4A3525" />
    <circle cx="407.1140634185746" cy="315.09471335349383" r="92.12510348746406" fill="#4A3525" />
    <circle cx="361.04759215759987" cy="286.4273648889769" r="82.04878070677029" fill="#4A3525" />
    <circle cx="390.0421952529871" cy="351.29857068223026" r="49.53425832112869" fill="#4A3525" />
    <circle cx="409.7675138784171" cy="318.5947038240178" r="91.46554628798405" fill="#4A3525" />
    <circle cx="554.1108767017118" cy="24.87060243758137" r="45.93426362970098" fill="#1A1A1A" />
    <circle cx="587.2750952848737" cy="40.07360464679731" r="29.66882718077379" fill="#1A1A1A" />
    <circle cx="545.8833910435565" cy="18.568283193134114" r="40.09504004861958" fill="#1A1A1A" />
    <circle cx="525.243473746384" cy="52.57744078467448" r="45.871679409747905" fill="#1A1A1A" />
    <circle cx="167.3544051207151" cy="236.57850502698005" r="87.84924414576855" fill="#1A1A1A" />
    <circle cx="136.0463402528689" cy="297.390503899743" r="108.58474893075648" fill="#1A1A1A" />
    <circle cx="213.21853102483306" cy="285.12814031238383" r="104.65979752260702" fill="#1A1A1A" />
    <circle cx="216.53263752598517" cy="268.16882290499757" r="81.59359909276985" fill="#1A1A1A" />
    <circle cx="793.6861214463887" cy="207.43705277246568" r="96.65659944857217" fill="#1A1A1A" />
    <circle cx="793.9983609326047" cy="226.52568729192024" r="73.20571576096452" fill="#1A1A1A" />
    <circle cx="854.7716218805338" cy="162.22912812523933" r="97.62544107997348" fill="#1A1A1A" />
    <circle cx="859.826338793329" cy="268.242121476944" r="111.26876267579118" fill="#1A1A1A" />
    <circle cx="180.5532272595456" cy="389.3538415845235" r="87.73988595546567" fill="#1A1A1A" />
    <circle cx="218.49894945399654" cy="347.95753661784596" r="72.32312226880848" fill="#1A1A1A" />
    <circle cx="241.49492020757413" cy="394.82349211378244" r="69.48503785734577" fill="#1A1A1A" />
    <circle cx="128.47142100160852" cy="450.745450433786" r="112.55848392912584" fill="#1A1A1A" />
    <circle cx="632.4718647508464" cy="480.82826565624293" r="117.28617328824355" fill="#1A1A1A" />
    <circle cx="550.1100544211874" cy="454.4202504202151" r="147.45114989699454" fill="#1A1A1A" />
    <circle cx="695.4820718560907" cy="525.4932514165413" r="141.35529852613675" fill="#1A1A1A" />
    <circle cx="581.0874469870942" cy="508.68989236810734" r="64.15540631136032" fill="#1A1A1A" />
    <circle cx="287.3651703723556" cy="796.075565407169" r="54.037404419116946" fill="#1A1A1A" />
    <circle cx="249.65430527886082" cy="784.1699875373797" r="46.483260676863935" fill="#1A1A1A" />
    <circle cx="287.9675167873671" cy="787.4496735895881" r="53.14298141284263" fill="#1A1A1A" />
    <circle cx="308.02929072398484" cy="771.582311099254" r="41.7503162873329" fill="#1A1A1A" />
    <circle cx="82.20756356010392" cy="30.335926660368706" r="85.68595416065878" fill="#1A1A1A" />
    <circle cx="106.06886333700875" cy="93.14095647136992" r="80.63848057190893" fill="#1A1A1A" />
    <circle cx="67.96770470904644" cy="42.20625565582271" r="86.23607234307576" fill="#1A1A1A" />
    <circle cx="28.229112543860126" cy="-30.468825693171446" r="90.18028478206045" fill="#1A1A1A" />
    <circle cx="73.05198196094977" cy="637.4050433427224" r="56.06589257499771" fill="#1A1A1A" />
    <circle cx="104.20240247770073" cy="647.7702353352018" r="54.91452026047883" fill="#1A1A1A" />
    <circle cx="68.32224101340243" cy="630.3481654772135" r="29.2495073151984" fill="#1A1A1A" />
    <circle cx="59.877294081840844" cy="661.7724557141411" r="69.14558226955768" fill="#1A1A1A" />
    <circle cx="478.39324518150823" cy="549.6051260236721" r="113.44949594751117" fill="#1A1A1A" />
    <circle cx="552.7484983138811" cy="541.8084615382656" r="73.43776572996816" fill="#1A1A1A" />
    <circle cx="427.5383745628634" cy="600.2556769974311" r="74.77731509384168" fill="#1A1A1A" />
    <circle cx="539.9542077843862" cy="572.3075465883213" r="61.00682818733673" fill="#1A1A1A" />
    <circle cx="216.26329492153812" cy="723.6282623175506" r="67.09229424737379" fill="#1A1A1A" />
    <circle cx="180.4910521007457" cy="711.2524342186109" r="65.80452179715734" fill="#1A1A1A" />
    <circle cx="178.47167910418443" cy="718.2717886573356" r="76.85298533024145" fill="#1A1A1A" />
    <circle cx="193.16782249828555" cy="735.8711916671781" r="53.88197425905603" fill="#1A1A1A" />
    <circle cx="247.91345537073565" cy="723.1484407781695" r="116.85845724531112" fill="#1A1A1A" />
    <circle cx="291.8089356819332" cy="764.2793879665827" r="112.02562571472353" fill="#1A1A1A" />
    <circle cx="182.236345586407" cy="773.9167193863084" r="147.00471864203575" fill="#1A1A1A" />
    <circle cx="179.33131282781244" cy="677.1105243769595" r="61.26991621239801" fill="#1A1A1A" />
    <circle cx="166.18968535390462" cy="147.17654577236362" r="116.25367098342244" fill="#1A1A1A" />
    <circle cx="171.7107046155762" cy="180.19739309214532" r="121.01860164788937" fill="#1A1A1A" />
    <circle cx="220.4302285370291" cy="155.5456199707636" r="78.04220654816365" fill="#1A1A1A" />
    <circle cx="98.62389637557067" cy="106.9647011141458" r="64.47728938345365" fill="#1A1A1A" />
    <circle cx="365.33266900198055" cy="484.2296697655278" r="59.90535563528617" fill="#1A1A1A" />
    <circle cx="399.54494866833176" cy="449.07872143073945" r="33.91159457806306" fill="#1A1A1A" />
    <circle cx="376.8967319512259" cy="477.35307035001216" r="46.561086995748624" fill="#1A1A1A" />
    <circle cx="348.74283464618793" cy="440.68342216713654" r="71.40508515479468" fill="#1A1A1A" />
    <circle cx="547.5614586816004" cy="772.5787549099839" r="83.36990188009239" fill="#1A1A1A" />
    <circle cx="512.1356335668233" cy="731.7322345222688" r="97.67703881498821" fill="#1A1A1A" />
    <circle cx="551.2401944096657" cy="766.3265867260099" r="80.24729427922847" fill="#1A1A1A" />
    <circle cx="553.6944331706837" cy="738.448382429522" r="79.24252938284694" fill="#1A1A1A" />
    <circle cx="343.32218772899273" cy="252.65013866156477" r="46.066076100782716" fill="#1A1A1A" />
    <circle cx="339.49958893035586" cy="281.7663029561066" r="31.95377424645335" fill="#1A1A1A" />
    <circle cx="343.6082951564567" cy="280.43341037428013" r="57.99798824080759" fill="#1A1A1A" />
    <circle cx="351.02424917426526" cy="256.48745525675616" r="33.45978060777434" fill="#1A1A1A" />
  </g>
</svg>